<svg width="33" height="33" viewBox="0 0 33 33" fill="none" xmlns="http://www.w3.org/2000/svg">
<path d="M19.6582 16.5C19.6582 18.2443 18.2443 19.6582 16.5 19.6582C14.7557 19.6582 13.3418 18.2443 13.3418 16.5C13.3418 14.7557 14.7557 13.3418 16.5 13.3418C18.2443 13.3418 19.6582 14.7557 19.6582 16.5Z" fill="#317AB8"/>
<path d="M23.8859 10.9122C23.7341 10.5008 23.4919 10.1285 23.1772 9.82283C22.8715 9.50812 22.4994 9.26591 22.0878 9.1141C21.7539 8.98444 21.2524 8.8301 20.3287 8.78806C19.3294 8.74249 19.0298 8.73267 16.5 8.73267C13.97 8.73267 13.6704 8.74223 12.6713 8.7878C11.7476 8.8301 11.2458 8.98444 10.9122 9.1141C10.5006 9.26591 10.1282 9.50812 9.82281 9.82283C9.50809 10.1285 9.26589 10.5006 9.11382 10.9122C8.98416 11.2461 8.82983 11.7479 8.78778 12.6716C8.74221 13.6706 8.73239 13.9702 8.73239 16.5003C8.73239 19.0301 8.74221 19.3297 8.78778 20.3289C8.82983 21.2527 8.98416 21.7542 9.11382 22.0881C9.26589 22.4997 9.50784 22.8718 9.82256 23.1775C10.1282 23.4922 10.5003 23.7344 10.912 23.8862C11.2458 24.0161 11.7476 24.1705 12.6713 24.2125C13.6704 24.2581 13.9697 24.2676 16.4997 24.2676C19.03 24.2676 19.3296 24.2581 20.3284 24.2125C21.2522 24.1705 21.7539 24.0161 22.0878 23.8862C22.9141 23.5675 23.5672 22.9144 23.8859 22.0881C24.0156 21.7542 24.1699 21.2527 24.2122 20.3289C24.2578 19.3297 24.2674 19.0301 24.2674 16.5003C24.2674 13.9702 24.2578 13.6706 24.2122 12.6716C24.1702 11.7479 24.0158 11.2461 23.8859 10.9122V10.9122ZM16.5 21.3652C13.8129 21.3652 11.6345 19.1872 11.6345 16.5C11.6345 13.8129 13.8129 11.6348 16.5 11.6348C19.1869 11.6348 21.3652 13.8129 21.3652 16.5C21.3652 19.1872 19.1869 21.3652 16.5 21.3652ZM21.5576 12.5795C20.9296 12.5795 20.4206 12.0704 20.4206 11.4425C20.4206 10.8146 20.9296 10.3055 21.5576 10.3055C22.1855 10.3055 22.6945 10.8146 22.6945 11.4425C22.6943 12.0704 22.1855 12.5795 21.5576 12.5795Z" fill="#317AB8"/>
<path d="M16.5 0C7.38869 0 0 7.38869 0 16.5C0 25.6113 7.38869 33 16.5 33C25.6113 33 33 25.6113 33 16.5C33 7.38869 25.6113 0 16.5 0ZM25.9175 20.4062C25.8716 21.4148 25.7113 22.1034 25.4771 22.7061C24.9849 23.9788 23.9788 24.9849 22.7061 25.4771C22.1036 25.7113 21.4148 25.8714 20.4065 25.9175C19.3961 25.9635 19.0733 25.9746 16.5003 25.9746C13.9269 25.9746 13.6044 25.9635 12.5938 25.9175C11.5854 25.8714 10.8966 25.7113 10.2941 25.4771C9.66167 25.2392 9.08915 24.8663 8.61582 24.3842C8.13393 23.9111 7.76106 23.3383 7.52314 22.7061C7.28899 22.1036 7.12862 21.4148 7.08279 20.4065C7.03622 19.3959 7.02539 19.0731 7.02539 16.5C7.02539 13.9269 7.03622 13.6041 7.08254 12.5938C7.12836 11.5852 7.28849 10.8966 7.52264 10.2939C7.76056 9.66167 8.13368 9.0889 8.61582 8.61582C9.0889 8.13368 9.66167 7.76081 10.2939 7.52289C10.8966 7.28874 11.5852 7.12862 12.5938 7.08254C13.6041 7.03647 13.9269 7.02539 16.5 7.02539C19.0731 7.02539 19.3959 7.03647 20.4062 7.08279C21.4148 7.12862 22.1034 7.28874 22.7061 7.52264C23.3383 7.76056 23.9111 8.13368 24.3844 8.61582C24.8663 9.08915 25.2394 9.66167 25.4771 10.2939C25.7115 10.8966 25.8716 11.5852 25.9177 12.5938C25.9638 13.6041 25.9746 13.9269 25.9746 16.5C25.9746 19.0731 25.9638 19.3959 25.9175 20.4062V20.4062Z" fill="#317AB8"/>
</svg>
